<?xml version="1.0" standalone="no"?>
<!DOCTYPE svg PUBLIC "-//W3C//DTD SVG 20010904//EN"
 "http://www.w3.org/TR/2001/REC-SVG-20010904/DTD/svg10.dtd">
<svg version="1.0" xmlns="http://www.w3.org/2000/svg"
 width="298.000000pt" height="169.000000pt" viewBox="0 0 298.000000 169.000000"
 preserveAspectRatio="xMidYMid meet">

<g transform="translate(0.000000,169.000000) scale(0.100000,-0.100000)"
fill="#000000" stroke="none">
<path d="M1660 1360 c-113 -4 -224 -13 -248 -19 -57 -16 -107 -68 -127 -133
-37 -123 -37 -595 1 -718 19 -64 66 -114 122 -130 71 -21 585 -34 872 -22 146
6 281 16 302 22 20 6 51 27 71 50 57 63 68 115 74 365 8 323 -12 462 -78 522
-51 47 -86 53 -352 63 -274 10 -330 10 -637 0z m28 -212 l3 -48 -55 0 -56 0 0
-283 c0 -156 -2 -286 -4 -288 -3 -2 -25 -3 -50 -1 l-46 4 0 284 0 284 -55 0
-55 0 0 43 c0 24 3 47 7 51 4 3 75 5 157 4 l151 -3 3 -47z m412 -54 l0 -105
30 21 c42 30 96 24 124 -13 20 -27 21 -41 21 -222 0 -181 -1 -195 -21 -222
-30 -40 -81 -43 -123 -8 -29 25 -31 25 -31 7 0 -24 -11 -29 -56 -24 l-34 4 0
334 0 334 45 0 45 0 0 -106z m-330 -274 c0 -190 2 -210 17 -210 9 0 25 7 35
17 16 14 18 35 18 210 l0 194 48 -3 47 -3 3 -247 2 -248 -50 0 c-43 0 -50 3
-50 20 0 18 -2 18 -36 -5 -45 -31 -85 -32 -110 -4 -17 19 -19 41 -22 255 l-3
234 50 0 51 0 0 -210z m785 188 c40 -31 55 -77 55 -168 l0 -80 -90 0 -90 0 0
-49 c0 -74 14 -103 48 -99 24 3 27 7 30 46 l3 42 50 0 49 0 0 -40 c0 -145
-189 -194 -257 -68 -15 27 -18 58 -18 183 0 164 8 192 61 234 38 30 121 29
159 -1z"/>
<path d="M2118 939 c-16 -9 -18 -28 -18 -163 0 -163 1 -166 50 -166 27 0 30
18 30 174 0 163 -9 186 -62 155z"/>
<path d="M2440 931 c-5 -11 -10 -36 -10 -55 0 -35 1 -36 40 -36 l40 0 0 43 c0
24 -5 48 -12 55 -18 18 -46 14 -58 -7z"/>
<path d="M254 1183 c4 -10 32 -96 62 -192 l54 -175 0 -143 0 -143 50 0 50 0 0
132 0 132 60 192 c33 105 60 197 60 203 0 6 -20 11 -48 11 l-49 0 -33 -125
c-18 -69 -35 -123 -38 -121 -3 3 -19 58 -37 123 l-31 118 -53 3 c-48 3 -53 1
-47 -15z"/>
<path d="M636 1009 c-50 -39 -56 -65 -56 -229 0 -171 9 -208 62 -240 44 -27
97 -26 139 3 54 36 59 55 59 230 0 177 -10 216 -61 242 -42 22 -111 19 -143
-6z m102 -71 c17 -17 17 -309 0 -326 -16 -16 -33 -15 -52 4 -13 13 -16 42 -16
163 0 150 5 171 40 171 9 0 21 -5 28 -12z"/>
<path d="M920 795 c0 -222 1 -236 20 -255 33 -33 88 -20 128 28 10 14 12 12
12 -11 0 -26 2 -27 50 -27 l50 0 0 250 0 250 -50 0 -50 0 0 -195 c0 -184 -1
-196 -21 -216 -40 -40 -44 -25 -47 199 l-2 212 -45 0 -45 0 0 -235z"/>
</g>
</svg>
